<svg width="215" height="28" viewBox="0 0 215 28" fill="none" xmlns="http://www.w3.org/2000/svg">
<path d="M5.5 27.5455C4.18182 27.5455 3.05114 27.0852 2.10795 26.1648C1.17614 25.233 0.715909 24.1023 0.727273 22.7727C0.715909 21.4773 1.17614 20.3693 2.10795 19.4489C3.05114 18.5284 4.18182 18.0682 5.5 18.0682C6.75 18.0682 7.85227 18.5284 8.80682 19.4489C9.77273 20.3693 10.2614 21.4773 10.2727 22.7727C10.2614 23.6591 10.0284 24.4659 9.57386 25.1932C9.13068 25.9091 8.55114 26.483 7.83523 26.9148C7.11932 27.3352 6.34091 27.5455 5.5 27.5455Z" fill="#0066FF"/>
<path d="M14.6875 27V0.818181H26.0398C28.0341 0.818181 29.7088 1.08665 31.0639 1.62358C32.4276 2.16051 33.4545 2.91903 34.1449 3.89915C34.8438 4.87926 35.1932 6.03409 35.1932 7.36364C35.1932 8.3267 34.9801 9.20454 34.554 9.99716C34.1364 10.7898 33.5483 11.4545 32.7898 11.9915C32.0313 12.5199 31.1449 12.8864 30.1307 13.0909V13.3466C31.2557 13.3892 32.2784 13.6747 33.1989 14.2031C34.1193 14.723 34.8523 15.4432 35.3977 16.3636C35.9432 17.2756 36.2159 18.3494 36.2159 19.5852C36.2159 21.017 35.8409 22.2912 35.0909 23.4077C34.3494 24.5241 33.2926 25.402 31.9205 26.0412C30.5483 26.6804 28.9119 27 27.0114 27H14.6875ZM21.7955 21.3239H25.1193C26.3125 21.3239 27.2074 21.1023 27.804 20.6591C28.4006 20.2074 28.6989 19.5426 28.6989 18.6648C28.6989 18.0511 28.5582 17.5312 28.277 17.1051C27.9957 16.679 27.5952 16.3551 27.0753 16.1335C26.5639 15.9119 25.946 15.8011 25.2216 15.8011H21.7955V21.3239ZM21.7955 11.4034H24.7102C25.3324 11.4034 25.8821 11.3054 26.3594 11.1094C26.8366 10.9134 27.2074 10.6321 27.4716 10.2656C27.7443 9.89062 27.8807 9.43466 27.8807 8.89773C27.8807 8.08807 27.5909 7.47017 27.0114 7.04403C26.4318 6.60938 25.6989 6.39205 24.8125 6.39205H21.7955V11.4034ZM44.3082 27.3068C43.0554 27.3068 41.9474 27.1023 40.9844 26.6932C40.0298 26.2756 39.2798 25.6449 38.7344 24.8011C38.1889 23.9574 37.9162 22.8835 37.9162 21.5795C37.9162 20.5057 38.0994 19.5895 38.4659 18.831C38.8324 18.0639 39.3438 17.4375 40 16.9517C40.6562 16.4659 41.419 16.0952 42.2884 15.8395C43.1662 15.5838 44.1122 15.4176 45.1264 15.3409C46.2259 15.2557 47.108 15.1534 47.7727 15.0341C48.446 14.9062 48.9318 14.7315 49.2301 14.5099C49.5284 14.2798 49.6776 13.9773 49.6776 13.6023V13.5511C49.6776 13.0398 49.4815 12.6477 49.0895 12.375C48.6974 12.1023 48.1946 11.9659 47.581 11.9659C46.9077 11.9659 46.358 12.1151 45.9318 12.4134C45.5142 12.7031 45.2628 13.1506 45.1776 13.7557H38.6832C38.7685 12.5625 39.1477 11.4631 39.821 10.4574C40.5028 9.44318 41.4957 8.63352 42.7997 8.02841C44.1037 7.41477 45.7315 7.10795 47.6832 7.10795C49.0895 7.10795 50.3509 7.27415 51.4673 7.60653C52.5838 7.9304 53.5341 8.38636 54.3182 8.97443C55.1023 9.55398 55.6989 10.2358 56.108 11.0199C56.5256 11.7955 56.7344 12.6392 56.7344 13.5511V27H50.1378V24.2386H49.9844C49.5923 24.9716 49.1151 25.5639 48.5526 26.0156C47.9986 26.4673 47.3636 26.7955 46.6477 27C45.9403 27.2045 45.1605 27.3068 44.3082 27.3068ZM46.6094 22.858C47.1463 22.858 47.6491 22.7472 48.1179 22.5256C48.5952 22.304 48.983 21.9844 49.2812 21.5668C49.5795 21.1491 49.7287 20.642 49.7287 20.0455V18.4091C49.5412 18.4858 49.3409 18.5582 49.1278 18.6264C48.9233 18.6946 48.7017 18.7585 48.4631 18.8182C48.233 18.8778 47.9858 18.9332 47.7216 18.9844C47.4659 19.0355 47.1974 19.0824 46.9162 19.125C46.3707 19.2102 45.9233 19.3509 45.5739 19.5469C45.233 19.7344 44.9773 19.9688 44.8068 20.25C44.6449 20.5227 44.5639 20.8295 44.5639 21.1705C44.5639 21.7159 44.7557 22.1335 45.1392 22.4233C45.5227 22.7131 46.0128 22.858 46.6094 22.858ZM67.163 15.9545V27H60.1062V7.36364H66.805V11.0966H67.0096C67.4357 9.85227 68.1857 8.87642 69.2596 8.16903C70.342 7.46165 71.6033 7.10795 73.0437 7.10795C74.4329 7.10795 75.6388 7.42756 76.6616 8.06676C77.6928 8.69744 78.4897 9.56676 79.0522 10.6747C79.6232 11.7827 79.9045 13.0483 79.896 14.4716V27H72.8391V15.9545C72.8477 14.983 72.6005 14.2202 72.0977 13.6662C71.6033 13.1122 70.913 12.8352 70.0266 12.8352C69.4471 12.8352 68.94 12.9631 68.5053 13.2188C68.0792 13.4659 67.7511 13.8239 67.521 14.2926C67.2908 14.7528 67.1715 15.3068 67.163 15.9545ZM90.4364 15.9545V27H83.3796V7.36364H90.0785V11.0966H90.283C90.7092 9.85227 91.4592 8.87642 92.533 8.16903C93.6154 7.46165 94.8768 7.10795 96.3171 7.10795C97.7063 7.10795 98.9123 7.42756 99.935 8.06676C100.966 8.69744 101.763 9.56676 102.326 10.6747C102.897 11.7827 103.178 13.0483 103.169 14.4716V27H96.1126V15.9545C96.1211 14.983 95.8739 14.2202 95.3711 13.6662C94.8768 13.1122 94.1864 12.8352 93.3001 12.8352C92.7205 12.8352 92.2134 12.9631 91.7788 13.2188C91.3526 13.4659 91.0245 13.8239 90.7944 14.2926C90.5643 14.7528 90.445 15.3068 90.4364 15.9545ZM116.062 27.358C113.966 27.358 112.159 26.9574 110.642 26.1562C109.133 25.3466 107.97 24.1875 107.152 22.679C106.342 21.1619 105.937 19.3466 105.937 17.233C105.937 15.2045 106.346 13.4318 107.164 11.9148C107.983 10.3977 109.137 9.21733 110.629 8.37358C112.12 7.52983 113.88 7.10795 115.909 7.10795C117.392 7.10795 118.734 7.33807 119.936 7.7983C121.137 8.25852 122.164 8.92756 123.017 9.8054C123.869 10.6747 124.525 11.7315 124.985 12.9759C125.446 14.2202 125.676 15.6222 125.676 17.1818V18.8182H108.136V14.9318H119.181C119.173 14.3693 119.028 13.875 118.747 13.4489C118.474 13.0142 118.103 12.6776 117.635 12.4389C117.174 12.1918 116.65 12.0682 116.062 12.0682C115.491 12.0682 114.967 12.1918 114.49 12.4389C114.012 12.6776 113.629 13.0099 113.339 13.4361C113.058 13.8622 112.909 14.3608 112.892 14.9318V19.125C112.892 19.7557 113.024 20.3182 113.288 20.8125C113.552 21.3068 113.931 21.6946 114.426 21.9759C114.92 22.2571 115.517 22.3977 116.216 22.3977C116.701 22.3977 117.145 22.3295 117.545 22.1932C117.954 22.0568 118.304 21.8608 118.593 21.6051C118.883 21.3409 119.096 21.0256 119.233 20.6591H125.676C125.454 22.0227 124.93 23.2074 124.103 24.2131C123.277 25.2102 122.181 25.9858 120.818 26.5398C119.463 27.0852 117.877 27.358 116.062 27.358ZM128.555 27V7.36364H135.408V11.0966H135.612C135.97 9.71591 136.537 8.70597 137.312 8.06676C138.097 7.42756 139.013 7.10795 140.061 7.10795C140.368 7.10795 140.67 7.13352 140.969 7.18466C141.276 7.22727 141.57 7.29119 141.851 7.37642V13.3977C141.501 13.2784 141.071 13.1889 140.56 13.1293C140.048 13.0696 139.609 13.0398 139.243 13.0398C138.553 13.0398 137.93 13.1974 137.376 13.5128C136.831 13.8196 136.401 14.2543 136.085 14.8168C135.77 15.3707 135.612 16.0227 135.612 16.7727V27H128.555ZM144.062 27V0.818181H151.17V11.0455H160.58V0.818181H167.688V27H160.58V16.7727H151.17V27H144.062ZM183.898 18.4091V7.36364H190.955V27H184.256V23.267H184.051C183.625 24.5199 182.879 25.5 181.814 26.2074C180.749 26.9062 179.483 27.2557 178.017 27.2557C176.645 27.2557 175.443 26.9403 174.412 26.3097C173.389 25.679 172.592 24.8097 172.021 23.7017C171.459 22.5937 171.173 21.3239 171.165 19.892V7.36364H178.222V18.4091C178.23 19.3807 178.477 20.1435 178.963 20.6974C179.457 21.2514 180.148 21.5284 181.034 21.5284C181.622 21.5284 182.129 21.4048 182.555 21.1577C182.99 20.902 183.322 20.544 183.553 20.0838C183.791 19.6151 183.906 19.0568 183.898 18.4091ZM194.441 27V0.818181H201.498V10.7898H201.6C201.856 10.125 202.231 9.51562 202.725 8.96165C203.22 8.39915 203.833 7.9517 204.566 7.61932C205.299 7.27841 206.152 7.10795 207.123 7.10795C208.419 7.10795 209.65 7.45312 210.818 8.14347C211.994 8.83381 212.949 9.92045 213.681 11.4034C214.423 12.8864 214.794 14.8125 214.794 17.1818C214.794 19.4489 214.44 21.3281 213.733 22.8196C213.034 24.3111 212.096 25.4233 210.92 26.1562C209.752 26.8892 208.47 27.2557 207.072 27.2557C206.152 27.2557 205.329 27.1065 204.605 26.8082C203.889 26.5014 203.275 26.0881 202.764 25.5682C202.261 25.0398 201.873 24.4432 201.6 23.7784H201.447V27H194.441ZM201.345 17.1818C201.345 18.1364 201.468 18.9631 201.716 19.6619C201.971 20.3523 202.329 20.8892 202.789 21.2727C203.258 21.6477 203.816 21.8352 204.464 21.8352C205.112 21.8352 205.662 21.652 206.113 21.2855C206.574 20.9105 206.923 20.3778 207.162 19.6875C207.409 18.9886 207.532 18.1534 207.532 17.1818C207.532 16.2102 207.409 15.3793 207.162 14.6889C206.923 13.9901 206.574 13.4574 206.113 13.0909C205.662 12.7159 205.112 12.5284 204.464 12.5284C203.816 12.5284 203.258 12.7159 202.789 13.0909C202.329 13.4574 201.971 13.9901 201.716 14.6889C201.468 15.3793 201.345 16.2102 201.345 17.1818Z" fill="#090909"/>
</svg>
