<svg width="16" height="18" viewBox="0 0 16 18" fill="none" xmlns="http://www.w3.org/2000/svg">
<path d="M6.84091 18H0.125V0.545454H6.77273C8.56818 0.545454 10.1193 0.894886 11.4261 1.59375C12.7386 2.28693 13.75 3.28693 14.4602 4.59375C15.1761 5.89489 15.5341 7.45455 15.5341 9.27273C15.5341 11.0909 15.179 12.6534 14.4688 13.9602C13.7585 15.2614 12.7528 16.2614 11.4517 16.9602C10.1506 17.6534 8.61364 18 6.84091 18ZM4.86364 13.9773H6.67045C7.53409 13.9773 8.26989 13.8381 8.87784 13.5597C9.49148 13.2812 9.95739 12.8011 10.2756 12.1193C10.5994 11.4375 10.7614 10.4886 10.7614 9.27273C10.7614 8.05682 10.5966 7.10795 10.267 6.42614C9.94318 5.74432 9.46591 5.2642 8.83523 4.98579C8.21023 4.70739 7.44318 4.56818 6.53409 4.56818H4.86364V13.9773Z" fill="#4285F4"/>
</svg>
