<svg width="13" height="19" viewBox="0 0 13 19" fill="none" xmlns="http://www.w3.org/2000/svg">
<path d="M8.31818 0.545454H12.9886V12.5114C12.983 13.6477 12.696 14.6477 12.1278 15.5114C11.5653 16.3693 10.7869 17.0398 9.79261 17.5227C8.80398 18 7.66477 18.2386 6.375 18.2386C5.25568 18.2386 4.23295 18.0455 3.30682 17.6591C2.38068 17.267 1.64205 16.6534 1.09091 15.8182C0.539773 14.9773 0.267045 13.8864 0.272727 12.5455H5.01136C5.02841 12.983 5.10227 13.3523 5.23295 13.6534C5.36932 13.9545 5.55682 14.1818 5.79545 14.3352C6.03977 14.483 6.33523 14.5568 6.68182 14.5568C7.03409 14.5568 7.32955 14.4801 7.56818 14.3267C7.8125 14.1733 7.99716 13.946 8.12216 13.6449C8.24716 13.3381 8.3125 12.9602 8.31818 12.5114V0.545454Z" fill="#FBBC05"/>
</svg>
