<svg width="37" height="28" viewBox="0 0 37 28" fill="none" xmlns="http://www.w3.org/2000/svg">
<path d="M14.6875 27V0.818176H26.0398C28.0341 0.818176 29.7088 1.08664 31.0639 1.62358C32.4276 2.16051 33.4545 2.91903 34.1449 3.89914C34.8438 4.87926 35.1932 6.03409 35.1932 7.36363C35.1932 8.3267 34.9801 9.20454 34.554 9.99715C34.1364 10.7898 33.5483 11.4545 32.7898 11.9915C32.0312 12.5199 31.1449 12.8864 30.1307 13.0909V13.3466C31.2557 13.3892 32.2784 13.6747 33.1989 14.2031C34.1193 14.723 34.8523 15.4432 35.3977 16.3636C35.9432 17.2756 36.2159 18.3494 36.2159 19.5852C36.2159 21.017 35.8409 22.2912 35.0909 23.4077C34.3494 24.5241 33.2926 25.402 31.9205 26.0412C30.5483 26.6804 28.9119 27 27.0114 27H14.6875ZM21.7955 21.3239H25.1193C26.3125 21.3239 27.2074 21.1023 27.804 20.6591C28.4006 20.2074 28.6989 19.5426 28.6989 18.6648C28.6989 18.0511 28.5582 17.5312 28.277 17.1051C27.9957 16.679 27.5952 16.3551 27.0753 16.1335C26.5639 15.9119 25.946 15.8011 25.2216 15.8011H21.7955V21.3239ZM21.7955 11.4034H24.7102C25.3324 11.4034 25.8821 11.3054 26.3594 11.1094C26.8366 10.9133 27.2074 10.6321 27.4716 10.2656C27.7443 9.89062 27.8807 9.43465 27.8807 8.89772C27.8807 8.08806 27.5909 7.47017 27.0114 7.04403C26.4318 6.60937 25.6989 6.39204 24.8125 6.39204H21.7955V11.4034Z" fill="#090909"/>
<path d="M5.49998 27.5455C4.1818 27.5455 3.05112 27.0852 2.10794 26.1648C1.17612 25.233 0.715893 24.1023 0.727256 22.7727C0.715893 21.4773 1.17612 20.3693 2.10794 19.4489C3.05112 18.5284 4.1818 18.0682 5.49998 18.0682C6.74998 18.0682 7.85226 18.5284 8.8068 19.4489C9.77271 20.3693 10.2613 21.4773 10.2727 22.7727C10.2613 23.6591 10.0284 24.4659 9.57385 25.1932C9.13067 25.9091 8.55112 26.483 7.83521 26.9148C7.1193 27.3352 6.34089 27.5455 5.49998 27.5455Z" fill="#0066FF"/>
</svg>
